<svg height="512pt" viewBox="-78 0 512 512.00103" width="512pt" xmlns="http://www.w3.org/2000/svg"><path d="m96.25 425.835938 17.15625 48.136718-17.15625 38.027344h-48.710938c0-57.042969 48.710938-86.164062 48.710938-86.164062zm0 0" fill="#b2b0bc"/><path d="m100.816406 438.65625-4.566406-12.820312s-48.710938 29.121093-48.710938 86.164062h20.605469c-.003906-35.136719 18.480469-59.671875 32.671875-73.34375zm0 0" fill="#938ea3"/><path d="m260.261719 425.835938-17.15625 48.136718 17.15625 38.027344h48.710937c0-57.042969-48.710937-86.164062-48.710937-86.164062zm0 0" fill="#b2b0bc"/><path d="m96.25 425.835938v86.164062h46.152344l35.851562-14.261719 35.855469 14.261719h46.152344v-86.164062zm0 0" fill="#e8e8e8"/><path d="m195.0625 478.386719v-52.550781h-33.613281v52.550781h-19.046875v33.613281h71.707031v-33.613281zm0 0" fill="#fd5f7e"/><g fill="#b2b0bc"><path d="m152.109375 4.269531 26.144531 87.808594-26.144531 87.808594-124.71875-25.148438c0-.003906 15.09375-121.074219 124.71875-150.46875zm0 0"/><path d="m329.121094 154.734375-124.71875 25.152344-26.148438-87.808594 26.148438-87.808594c109.625 29.394531 124.71875 150.464844 124.71875 150.464844zm0 0"/><path d="m348.652344 215.054688c5.105468 16.59375 7.859375 34.214843 7.859375 52.480468 0 98.449219-79.808594 178.257813-178.257813 178.257813-98.445312 0-178.253906-79.808594-178.253906-178.257813 0-18.265625 2.753906-35.886718 7.859375-52.480468l26.613281-26.617188h292.5zm0 0"/></g><path d="m1.378906 245.328125c3.140625.761719 6.386719 1.164063 9.6875 1.164063h334.378906c3.296876 0 6.546876-.402344 9.683594-1.164063-1.292968-10.394531-3.472656-20.515625-6.476562-30.273437l-21.679688-26.617188h-292.496094l-26.617187 26.617188c-3.003906 9.757812-5.183594 19.878906-6.480469 30.273437zm0 0" fill="#938ea3"/><path d="m39.707031 214.273438c-2.695312 11.042968-4.054687 24.453124-4.054687 35.945312 0 78.632812 63.972656 142.605469 142.601562 142.605469 78.632813 0 142.605469-63.972657 142.605469-142.605469 0-12.101562-1.511719-24.074219-4.496094-35.671875l-138.109375-13.21875zm0 0" fill="#ffd3bc"/><path d="m204.402344 4.269531v175.617188l-26.148438 5.277343-26.144531-5.277343v-175.617188c4.59375-1.234375 9.359375-2.304687 14.289063-3.199219 7.835937-1.425781 15.882812-1.425781 23.714843 0 4.929688.894532 9.695313 1.964844 14.289063 3.199219zm0 0" fill="#c7c5cb"/><path d="m58.296875 154.734375s15.09375-121.070313 124.71875-150.464844c3.464844-.933593 7.03125-1.769531 10.691406-2.507812-1.1875-.242188-2.386719-.472657-3.59375-.691407-7.835937-1.425781-15.882812-1.425781-23.714843 0-4.929688.894532-9.695313 1.964844-14.289063 3.195313-109.621094 29.398437-124.71875 150.46875-124.71875 150.46875zm0 0" fill="#938ea3"/><path d="m152.109375 16.035156c9.363281-4.734375 19.625-8.742187 30.90625-11.765625 3.464844-.929687 7.03125-1.765625 10.691406-2.507812-1.1875-.238281-2.386719-.472657-3.59375-.691407-7.835937-1.425781-15.882812-1.425781-23.714843 0-3.695313.671876-7.300782 1.441407-10.8125 2.304688-1.167969.289062-2.328126.585938-3.476563.894531zm0 0" fill="#b2b0bc"/><path d="m320.800781 246.492188c-.277343-10.832032-1.757812-21.535157-4.4375-31.941407l-138.109375-13.222656-138.546875 12.945313c-2.410156 9.871093-3.742187 21.625-4 32.21875zm0 0" fill="#ffbe9c"/><path d="m190.117188 174.234375c-7.839844-1.425781-15.882813-1.425781-23.722657 0-4.929687.894531-9.695312 1.964844-14.285156 3.195313v109.074218c0 8.625 6.988281 15.613282 15.609375 15.613282h21.074219c8.621093 0 15.609375-6.988282 15.609375-15.613282v-109.074218c-4.589844-1.230469-9.355469-2.300782-14.285156-3.195313zm0 0" fill="#c7c5cb"/><path d="m204.402344 246.492188v-69.0625c-4.59375-1.230469-9.359375-2.300782-14.285156-3.195313-7.839844-1.425781-15.882813-1.425781-23.722657 0-4.929687.894531-9.695312 1.964844-14.289062 3.195313v69.0625zm0 0" fill="#b2b0bc"/><path d="m354.898438 201.890625c-6.339844-17.007813-15.070313-32.863281-25.78125-47.152344h-301.722657c-10.710937 14.289063-19.441406 30.144531-25.78125 47.152344-2.472656 6.628906 2.378907 13.699219 9.453125 13.699219h334.378906c7.074219 0 11.925782-7.070313 9.453126-13.699219zm0 0" fill="#938ea3"/><path d="m32.519531 201.890625c6.339844-17.007813 15.070313-32.863281 25.78125-47.152344h-30.90625c-10.710937 14.289063-19.441406 30.144531-25.78125 47.152344-2.472656 6.628906 2.378907 13.695313 9.453125 13.695313h30.90625c-7.074218.003906-11.925781-7.066407-9.453125-13.695313zm0 0" fill="#77718c"/><path d="m96.253906 286.285156c-4.269531 0-7.726562-3.460937-7.726562-7.726562v-15.945313c0-4.265625 3.457031-7.726562 7.726562-7.726562 4.265625 0 7.726563 3.460937 7.726563 7.726562v15.945313c0 4.269531-3.460938 7.726562-7.726563 7.726562zm0 0" fill="#423e4f"/><path d="m107.109375 309.722656h-21.714844c-4.269531 0-7.726562-3.460937-7.726562-7.726562 0-4.269532 3.457031-7.726563 7.726562-7.726563h21.714844c4.269531 0 7.726563 3.457031 7.726563 7.726563 0 4.265625-3.457032 7.726562-7.726563 7.726562zm0 0" fill="#ff889e"/><path d="m260.257812 286.285156c-4.265624 0-7.726562-3.460937-7.726562-7.726562v-15.945313c0-4.265625 3.460938-7.726562 7.726562-7.726562 4.269532 0 7.726563 3.460937 7.726563 7.726562v15.945313c0 4.269531-3.457031 7.726562-7.726563 7.726562zm0 0" fill="#423e4f"/><path d="m271.117188 309.722656h-21.71875c-4.265626 0-7.726563-3.460937-7.726563-7.726562 0-4.269532 3.460937-7.726563 7.726563-7.726563h21.71875c4.265624 0 7.726562 3.457031 7.726562 7.726563 0 4.265625-3.460938 7.726562-7.726562 7.726562zm0 0" fill="#ff889e"/><path d="m178.253906 344.472656c-7.945312 0-15.410156-3.328125-20.480468-9.132812-2.808594-3.210938-2.480469-8.09375.730468-10.902344 3.210938-2.804688 8.09375-2.480469 10.902344.734375 2.136719 2.445313 5.363281 3.847656 8.847656 3.847656 3.488282 0 6.714844-1.402343 8.851563-3.847656 2.808593-3.214844 7.6875-3.542969 10.902343-.734375 3.210938 2.808594 3.542969 7.691406.730469 10.902344-5.070312 5.804687-12.535156 9.132812-20.484375 9.132812zm0 0" fill="#423e4f"/></svg>